<svg width="1917" height="967" viewBox="0 0 1917 967" fill="none" xmlns="http://www.w3.org/2000/svg">
<g clip-path="url(#clip0_4962_4076)">
<path fill-rule="evenodd" clip-rule="evenodd" d="M-3 866.634C-1.46347 866.7 0.152393 866.638 1.76262 866.394C3.30553 866.156 1.18709 863.958 0.0727692 862.997C-0.343582 863.443 -0.576233 863.453 -0.527252 862.561C-0.527252 862.541 -0.466019 862.561 -0.38031 862.64C-0.368065 862.65 -0.35582 862.658 -0.343575 862.665C-0.331329 862.673 -0.319084 862.68 -0.306839 862.69L-0.172134 862.799C-0.0986633 862.858 -0.0251923 862.918 0.0605316 862.997C0.317673 862.72 0.660538 862.264 1.02789 861.749C1.93405 860.511 3.07286 858.956 4.01575 858.738C4.81044 858.553 6.33917 859.029 7.44943 859.374L7.50568 859.392C7.97099 859.54 8.35059 859.659 8.571 859.699C16.7368 861.07 26.4396 862.431 35.4369 863.693L35.4431 863.694L36.3311 863.819H36.3556C43.0293 864.75 49.2621 865.622 54.1235 866.394C61.2975 867.519 68.0293 868.732 74.2362 869.849L74.463 869.89H74.4752C86.5246 872.069 96.627 873.892 104.244 874.05C106.329 874.099 109.64 873.711 112.165 873.415L112.24 873.406C113.966 873.198 115.313 873.04 115.644 873.099C117.386 873.373 118.518 874.227 119.762 875.164L119.807 875.199C121.081 876.169 122.477 877.219 124.754 877.883C130.232 879.457 141.941 880.649 151.286 881.601L151.829 881.656H151.853C155.564 882.033 158.858 882.369 161.209 882.667C161.613 882.715 162.342 883.081 163.124 883.474L163.192 883.508C164.123 883.984 165.127 884.489 165.764 884.578C167.135 884.766 168.74 884.677 170.356 884.578C171.923 884.489 173.503 884.4 174.887 884.578C175.291 884.628 176.038 885.004 176.834 885.42C177.777 885.905 178.793 886.42 179.442 886.499C180.458 886.628 182.699 886.806 185.565 887.034L185.713 887.046C196.296 887.9 215.01 889.41 211.341 891.283C210.853 891.543 208.516 891.457 205.666 891.352L205.414 891.343C199.451 891.115 191.418 890.818 193.108 893.195C194.247 894.789 214.561 897.236 225.007 897.978C232.66 898.533 262.22 899.791 243.24 897.018C242.273 896.879 241.146 896.8 239.946 896.721L239.907 896.718C238.056 896.59 236.038 896.45 234.117 896.057C225.252 894.274 220.696 890.639 231.84 892.234C239.395 893.323 246.987 894.116 254.31 894.878C260.787 895.552 267.045 896.206 272.849 897.018C275.078 897.335 277.551 897.939 279.915 898.523C282.376 899.137 284.715 899.712 286.515 899.89C291.45 900.372 294.937 900.131 297.659 899.944L297.822 899.932H297.824C299.661 899.807 301.148 899.705 302.471 899.89C302.921 899.959 303.649 901.122 304.162 901.943L304.173 901.96L304.174 901.962C304.308 902.179 304.43 902.376 304.528 902.514C304.626 902.663 304.711 902.762 304.736 902.762C307.858 903.059 310.148 902.673 312.352 902.297C314.263 901.97 316.124 901.653 318.414 901.801C326.689 902.346 324.293 903.771 321.979 905.148L321.977 905.149C320.434 906.06 318.94 906.961 320.692 907.546C325.308 909.061 341.068 909.863 343.48 909.457C346.578 908.952 338.606 906.456 338.925 906.585C330.084 902.722 339.133 904.04 345.917 905.03H345.941L346.291 905.081C347.866 905.308 349.286 905.514 350.313 905.624C354.315 906.069 357.594 906.391 360.469 906.673L360.476 906.674L360.685 906.694H360.709C366.342 907.249 370.432 907.655 375.391 908.487C376.726 908.714 378.085 908.952 379.469 909.19C384.245 910.032 389.192 910.903 393.612 911.349C395.767 911.567 397.065 911.24 398.388 910.903C399.6 910.596 400.825 910.289 402.723 910.388C407.719 910.644 413.564 912.431 417.869 913.746L417.931 913.766C420.319 914.498 422.217 915.073 423.234 915.172C425.288 915.359 427.367 915.048 429.469 914.733L429.516 914.726C431.205 914.469 432.907 914.211 434.622 914.211C442.557 914.172 451.594 915.291 458.867 916.192L459.431 916.262L459.434 916.262C462.098 916.591 464.507 916.888 466.521 917.074C467.978 917.202 469.521 917.143 471.076 917.074C472.631 917.004 474.174 916.945 475.631 917.074C477.214 917.215 478.608 917.588 480.014 917.965L480.236 918.024C481.656 918.42 483.101 918.817 484.754 918.985C490.607 919.579 496.914 919.797 502.963 920.005L503.058 920.008C508.792 920.205 514.291 920.394 518.931 920.897C520.192 921.031 521.499 921.503 522.707 921.938L522.812 921.976L522.833 921.984L522.834 921.984C523.94 922.387 524.961 922.759 525.764 922.808C527.661 922.925 529.017 922.593 530.293 922.282L530.368 922.263C531.752 921.917 533.049 921.6 534.874 921.857C535.131 921.897 535.841 922.224 536.65 922.61C537.629 923.075 538.768 923.61 539.417 923.769C541.817 924.353 543.029 924.482 546.25 924.729C555.578 925.435 565.253 925.597 575.156 925.764L575.164 925.764L575.48 925.769C584.553 925.918 593.823 926.076 603.215 926.641C605.713 926.799 608.064 927.205 610.415 927.621C612.522 927.998 614.64 928.364 616.881 928.552C631.134 929.701 646.331 929.84 661.184 929.909C661.086 929.919 660.988 929.927 660.891 929.934C660.793 929.942 660.694 929.949 660.597 929.959C661.013 929.998 660.597 930.088 659.042 930.216C657.437 930.533 655.931 931.009 654.462 931.474C652.356 932.138 650.36 932.762 648.315 932.861C647.249 932.92 645.302 932.554 643.257 932.167C641.127 931.761 638.873 931.345 637.367 931.345C635.212 931.603 633.265 931.89 631.698 932.227C627.216 931.732 622.673 931.276 619.171 931.425C609.742 931.801 613.538 933.633 616.893 934.297C621.387 935.198 627.84 935.921 630.571 936.208C638.086 937.031 646.092 937.03 653.997 937.03H654.278C658.601 937.03 662.886 937.03 667.038 937.159C678.034 937.506 687.757 938.298 697.528 939.1H697.541L699.073 939.225C702.842 939.531 706.639 939.84 710.521 940.111C710.437 940.195 710.35 940.281 710.262 940.368L710.14 940.488C710.012 940.614 709.884 940.74 709.761 940.863C709.604 941.013 709.455 941.156 709.325 941.285C709.113 941.497 708.953 941.67 708.892 941.774C709.394 941.586 714.733 943.468 713.374 943.379C720.954 943.943 724.064 942.894 727.089 941.854C727.86 941.596 728.619 941.339 729.452 941.101C741.416 941.537 753.698 941.933 766.176 942.299C769.739 942.775 773.082 943.191 776.131 943.379C777.576 943.468 779.168 943.379 780.784 943.28L780.892 943.274H780.893C783.136 943.147 785.408 943.018 787.348 943.379C789.253 943.725 790.598 944.741 791.893 945.719L791.903 945.726L791.927 945.744C793.253 946.738 794.534 947.698 796.311 947.885C799.805 948.268 804.549 948.155 809.888 948.028H809.89L810.038 948.024L810.42 948.015H810.421C813.776 947.938 817.34 947.857 820.973 947.885C824.88 947.925 828.394 948.024 831.553 948.123L831.698 948.127C841.559 948.412 847.983 948.598 852.321 946.41C847.497 948.816 836.929 945.092 836.684 944.884C836.219 944.458 836.194 944.132 836.464 943.874C845.868 944.023 855.236 944.142 864.493 944.231C864.995 944.409 865.448 944.627 865.828 944.884C865.142 944.429 856.987 946.221 856.864 946.39C855.456 947.994 857.587 948.886 859.375 949.628C860.428 950.064 861.346 950.451 861.346 950.896C861.346 950.896 861.236 950.956 861.028 951.055L861.019 951.059C859.223 951.9 850.773 955.86 854.623 956.908C860.281 958.443 863.048 955.561 865.595 952.897C867.065 951.362 868.473 949.896 870.31 949.401C878.545 947.131 884.118 948.086 888.446 948.828L888.494 948.836C890.049 949.104 891.433 949.341 892.731 949.401C897.222 949.599 899.39 947.937 901.507 946.314L901.511 946.311C902.38 945.637 903.25 944.974 904.278 944.449H908.478C908.466 944.746 908.442 945.073 908.417 945.409L908.408 945.555L908.408 945.556C908.337 946.69 908.264 947.848 908.417 947.895C909.628 948.242 911.268 947.866 913.298 947.401L913.303 947.4C915.654 946.855 918.532 946.192 921.862 946.4C923.993 946.518 927.287 946.499 930.667 946.469C940.108 946.4 950.223 946.33 937.561 949.401C933.018 950.49 931.242 950.094 929.442 949.688C928.083 949.381 926.712 949.074 924.115 949.401C923.099 949.529 921.544 949.926 919.524 950.441L919.496 950.447C914.83 951.636 907.74 953.442 899.453 953.907C897.835 954.004 896.134 954.082 894.443 954.16L894.335 954.165L894.301 954.166C886.156 954.542 877.962 954.92 877.032 956.918C877.155 956.581 889.608 961.672 888.237 961.424C888.996 961.573 890.955 961.513 893.159 961.444L893.278 961.441H893.279C898.083 961.303 904.014 961.132 901.694 962.92C901.164 963.348 898.562 963.183 896.251 963.036L896.135 963.029C894.653 962.93 893.306 962.841 892.731 962.92C874.73 965.257 898.645 968.803 908.429 965.921C910.3 965.367 908.776 964.556 906.955 963.587L906.948 963.583C904.939 962.514 902.576 961.246 903.948 959.919C903.886 959.988 904.939 959.83 906.715 959.562C914.797 958.344 937.879 954.868 939.814 959.919C940.021 960.452 937.513 961.183 934.767 961.982L934.744 961.989C930.128 963.336 924.875 964.881 930.85 965.921C943.365 968.129 949.782 963.336 948.79 961.414C944.174 952.501 972.482 953.105 998.489 953.659H998.493L998.902 953.668C1005.75 953.814 1012.42 953.956 1018.28 953.907C1022.03 953.877 1030.66 952.728 1037.16 951.857L1037.34 951.834L1037.34 951.833C1041.36 951.3 1044.55 950.877 1045.18 950.906C1045.6 950.926 1045.88 951.164 1046.2 951.451L1046.21 951.46C1046.59 951.794 1047.03 952.185 1047.87 952.362C1047.27 951.53 1064.9 946.727 1063.12 950.906C1062.71 951.936 1060.39 951.996 1058.07 952.055L1058.06 952.055C1056.62 952.095 1055.16 952.135 1054.16 952.402C1052.81 952.773 1051.86 953.339 1050.94 953.887L1050.94 953.888L1050.9 953.907L1050.88 953.921C1049.87 954.521 1048.88 955.108 1047.44 955.403C1044.96 955.908 1040.97 956.452 1036.85 957.007L1036.68 957.029C1033.37 957.478 1029.98 957.936 1027.26 958.404C1026.41 958.552 1024.78 958.552 1022.96 958.552H1022.95C1018.05 958.562 1011.82 958.575 1016.04 961.404C1015.48 961.028 1053.84 959.899 1054.16 959.899C1061.21 959.322 1068.4 957.732 1074.74 956.328L1074.99 956.274C1079.92 955.175 1084.35 954.204 1087.79 953.887C1092.24 953.481 1093.66 954.135 1094.74 954.64C1095.98 955.214 1096.77 955.581 1101.24 953.887C1102.21 953.542 1102.55 950.555 1102.83 948.114L1102.84 948.083C1103.02 946.439 1103.18 945.043 1103.48 944.884C1105.57 943.735 1111.64 943.735 1118.06 943.735H1118.06C1122.39 943.735 1126.87 943.735 1130.39 943.379C1136.64 942.775 1143.05 941.702 1148.73 940.752L1149.01 940.705C1157.99 940.635 1166.43 940.566 1175.01 940.239C1176.53 940.368 1178.1 940.427 1179.71 940.378C1180.51 940.348 1182.33 940.051 1184.76 939.615C1185.4 939.537 1186.04 939.458 1186.67 939.375C1187.41 939.28 1188.14 939.182 1188.87 939.081C1191.85 938.665 1194.79 938.258 1197.99 938.14C1201.95 937.996 1205.75 938.084 1209.5 938.17L1209.9 938.179C1212.35 938.239 1214.78 938.288 1217.22 938.288C1215.69 940.061 1213.15 940.041 1209.28 939.992C1206.76 939.962 1203.66 939.932 1199.9 940.388C1198.63 940.536 1197.37 940.682 1196.1 940.827C1195.46 940.9 1194.83 940.973 1194.2 941.046C1193.39 941.139 1192.57 941.234 1191.76 941.329C1179.2 942.755 1166.79 944.171 1155.06 946.4C1153.21 946.746 1151.31 947.043 1149.5 947.321L1149.5 947.322C1142.68 948.371 1137.01 949.243 1139.38 952.411C1141.32 955.016 1170.37 952.56 1191.06 950.807C1193.87 950.569 1196.51 950.351 1198.92 950.153L1345.15 930.632C1364.65 929.157 1383.79 927.245 1401.77 925.433H1401.78L1402.23 925.387C1411.19 924.482 1419.86 923.607 1428.14 922.838C1429.99 922.659 1431.98 922.739 1433.97 922.828C1435.86 922.907 1437.76 922.986 1439.53 922.838C1443.41 922.541 1446.77 921.956 1450.1 921.372C1453.31 920.807 1456.48 920.253 1460.04 919.966C1461.93 919.814 1463.92 919.871 1465.91 919.928L1466.18 919.936C1467.97 919.995 1469.74 920.045 1471.44 919.966C1481.71 919.443 1489.77 918.479 1497.53 917.552L1497.54 917.551L1497.64 917.539C1501.8 917.034 1505.88 916.549 1510.18 916.143C1525.6 914.673 1538.13 913.224 1549.99 911.852L1550.14 911.834H1550.16L1554.83 911.296C1557.42 910.997 1560 910.7 1562.59 910.408C1567.75 909.821 1573.32 909.424 1578.9 909.026L1580.29 908.927C1585.94 908.526 1591.57 908.128 1596.76 907.536C1605.11 906.575 1613.95 905.248 1621.94 904.05L1621.94 904.05L1621.94 904.05H1621.96L1622.05 904.037L1622.06 904.034C1627.95 903.149 1633.38 902.333 1637.77 901.801C1648.69 900.464 1659.66 899.331 1670.52 898.21L1670.53 898.209L1670.75 898.186H1670.76L1672.76 897.978L1672.78 897.976C1681.72 897.048 1690.58 896.128 1699.29 895.096C1723.08 892.303 1746.74 888.807 1769.47 885.44H1769.52L1769.85 885.39L1774.01 884.776C1781.11 883.727 1788.11 882.692 1794.99 881.706C1799.29 881.092 1804.36 880.299 1809.28 879.527H1809.29C1816.26 878.428 1822.97 877.378 1826.89 876.932C1828.72 876.714 1830.77 876.813 1832.8 876.912L1833.01 876.922C1834.83 877.008 1836.64 877.094 1838.29 876.932C1838.85 876.873 1839.76 876.556 1840.79 876.189C1842.18 875.694 1843.81 875.12 1845.12 875.021C1846.46 874.912 1847.94 874.981 1849.42 875.05C1851.08 875.13 1852.76 875.209 1854.23 875.021C1854.64 874.972 1855.36 874.607 1856.15 874.214L1856.22 874.179H1856.23C1856.61 873.981 1857.01 873.783 1857.39 873.604C1857.93 873.357 1858.42 873.169 1858.8 873.119C1862.42 872.663 1864.8 872.634 1866.81 872.614C1868.77 872.594 1870.37 872.574 1872.47 872.168C1883.17 870.098 1893.38 868.474 1903.19 866.919H1903.24L1903.91 866.812C1908.35 866.105 1912.7 865.41 1917 864.688V0H-3V866.634ZM674.238 930.85C672.336 930.529 670.127 930.169 667.646 929.969C672.258 929.989 676.811 930.019 681.267 930.078C680.863 930.771 680.361 931.316 679.846 931.385C678.467 931.563 676.601 931.248 674.26 930.854L674.238 930.85ZM696.794 930.513C700.292 930.671 703.489 931.003 706.563 931.405C706.464 931.405 706.365 931.405 706.266 931.404L705.959 931.403C705.472 931.401 704.987 931.398 704.508 931.405C702.635 931.425 701.202 931.87 699.806 932.306L699.779 932.314C697.879 932.906 696.058 933.472 693.304 932.9C691.577 932.544 689.936 931.415 688.344 930.226C691.21 930.296 694.039 930.385 696.794 930.513Z" fill="white"/>
<path fill-rule="evenodd" clip-rule="evenodd" d="M1.7627 865.697C0.152344 865.941 -1.46338 866.003 -3 865.937V966.303H898.629C888.858 966.298 879.54 963.936 892.731 962.223C893.306 962.143 894.653 962.233 896.135 962.332L896.251 962.339C898.562 962.486 901.165 962.651 901.694 962.223C904.013 960.436 898.09 960.606 893.285 960.744H893.277L893.159 960.747C890.955 960.816 888.996 960.876 888.237 960.727C889.608 960.975 877.155 955.884 877.032 956.221C877.962 954.223 886.156 953.845 894.301 953.469L894.335 953.468L894.443 953.463C896.134 953.385 897.835 953.307 899.454 953.21C907.74 952.745 914.831 950.939 919.496 949.75L919.523 949.744L919.54 949.739C921.553 949.227 923.102 948.832 924.115 948.704C925.278 948.557 926.195 948.538 926.975 948.589C927.938 948.652 928.692 948.822 929.442 948.991C931.242 949.397 933.018 949.793 937.561 948.704C950.223 945.634 940.108 945.703 930.667 945.772C927.287 945.802 923.993 945.822 921.862 945.703C918.532 945.495 915.654 946.159 913.303 946.703L913.298 946.704C911.268 947.169 909.628 947.545 908.417 947.198C908.265 947.151 908.337 945.994 908.408 944.858L908.417 944.712L908.421 944.646C908.444 944.333 908.467 944.029 908.479 943.752H904.278C903.25 944.277 902.38 944.94 901.511 945.614L901.507 945.617C899.39 947.24 897.222 948.902 892.731 948.704C891.433 948.644 890.049 948.407 888.494 948.139L888.446 948.131C884.118 947.39 878.545 946.434 870.31 948.704C868.473 949.199 867.064 950.665 865.595 952.2C863.048 954.864 860.281 957.746 854.624 956.211C850.773 955.163 859.223 951.203 861.019 950.362L861.028 950.358C861.236 950.259 861.346 950.199 861.346 950.199C861.346 949.979 861.122 949.773 860.768 949.569C860.406 949.36 859.907 949.152 859.375 948.932C857.587 948.189 855.456 947.297 856.864 945.693C856.987 945.524 865.142 943.732 865.828 944.187C865.448 943.93 864.995 943.712 864.493 943.534C855.236 943.445 845.868 943.326 836.464 943.177C836.194 943.435 836.219 943.762 836.684 944.187C836.929 944.395 847.497 948.12 852.321 945.713C847.983 947.901 841.559 947.715 831.698 947.43L831.553 947.426C828.394 947.327 824.88 947.228 820.974 947.188C817.34 947.16 813.775 947.242 810.42 947.318L809.89 947.33C804.549 947.458 799.805 947.571 796.312 947.188C794.534 947.001 793.253 946.041 791.927 945.047L791.903 945.029L791.893 945.022C790.598 944.044 789.253 943.028 787.348 942.682C785.409 942.322 783.14 942.45 780.896 942.577H780.892L780.784 942.583C779.645 942.653 778.518 942.718 777.446 942.719C776.997 942.719 776.558 942.708 776.131 942.682C773.082 942.494 769.739 942.078 766.176 941.602C753.698 941.236 741.416 940.84 729.452 940.404C728.619 940.642 727.86 940.899 727.089 941.157C724.064 942.197 720.954 943.246 713.374 942.682C714.733 942.771 709.394 940.89 708.892 941.078C708.953 940.973 709.113 940.8 709.325 940.589C709.455 940.459 709.604 940.316 709.762 940.166C709.884 940.043 710.012 939.917 710.14 939.791L710.262 939.671L710.438 939.497L710.521 939.413C706.66 939.145 702.884 938.838 699.136 938.532L699.073 938.528L697.541 938.404H697.528C687.757 937.601 678.034 936.809 667.038 936.462C662.887 936.333 658.601 936.333 654.278 936.333H653.997C646.092 936.333 638.086 936.334 630.571 935.512C627.84 935.224 621.387 934.501 616.893 933.6C613.538 932.936 609.742 931.104 619.171 930.728C622.673 930.579 627.216 931.035 631.698 931.53C633.265 931.193 635.212 930.906 637.367 930.648C638.874 930.648 641.126 931.064 643.257 931.471C645.302 931.857 647.249 932.223 648.314 932.164C650.359 932.065 652.355 931.441 654.462 930.777C655.931 930.312 657.438 929.836 659.042 929.519C660.597 929.391 661.013 929.302 660.597 929.262C660.692 929.252 660.788 929.245 660.883 929.237H660.891C660.988 929.23 661.086 929.223 661.185 929.212C646.331 929.143 631.134 929.004 616.881 927.855C614.64 927.667 612.521 927.301 610.416 926.925C608.064 926.509 605.713 926.102 603.215 925.944C593.823 925.379 584.553 925.221 575.479 925.073L575.164 925.067L575.156 925.067C565.252 924.901 555.578 924.738 546.25 924.033C543.029 923.785 541.817 923.656 539.417 923.072C538.979 922.965 538.317 922.686 537.632 922.373C537.303 922.223 536.968 922.064 536.649 921.913C535.841 921.527 535.131 921.2 534.874 921.161C533.796 921.008 532.902 921.057 532.065 921.193C531.486 921.287 530.934 921.424 530.368 921.566L530.293 921.585L530.289 921.586C529.014 921.897 527.659 922.228 525.764 922.111C525.134 922.073 524.372 921.836 523.538 921.541C523.308 921.46 523.072 921.374 522.833 921.286L522.812 921.279L522.707 921.241C521.5 920.806 520.192 920.334 518.931 920.2C514.291 919.697 508.792 919.508 503.059 919.311L502.963 919.308C496.914 919.1 490.607 918.882 484.754 918.288C483.101 918.12 481.656 917.724 480.235 917.328L480.014 917.268C478.608 916.891 477.214 916.518 475.631 916.377C474.174 916.248 472.631 916.307 471.076 916.377C469.521 916.446 467.978 916.505 466.521 916.377C465.118 916.248 463.523 916.064 461.782 915.853C461.025 915.762 460.24 915.664 459.431 915.565L458.868 915.495C451.594 914.594 442.557 913.474 434.622 913.515C432.907 913.515 431.206 913.772 429.516 914.029L429.469 914.036C427.367 914.351 425.288 914.662 423.234 914.475C422.217 914.376 420.319 913.802 417.932 913.069L417.869 913.05C413.564 911.734 407.719 909.948 402.723 909.691C401.523 909.629 400.593 909.728 399.764 909.887C399.282 909.98 398.834 910.093 398.388 910.206C397.065 910.543 395.768 910.87 393.612 910.652C389.192 910.206 384.245 909.335 379.469 908.493L376.461 907.973L375.391 907.79C370.432 906.958 366.342 906.552 360.709 905.997H360.685L360.476 905.976L360.469 905.976C357.594 905.694 354.315 905.372 350.313 904.928C349.286 904.817 347.866 904.612 346.291 904.384L345.941 904.333H345.917C339.133 903.343 330.083 902.026 338.925 905.888C338.606 905.76 346.578 908.255 343.48 908.76C341.068 909.166 325.308 908.364 320.691 906.849C318.94 906.265 320.435 905.363 321.978 904.452C324.293 903.075 326.689 901.649 318.414 901.104C316.124 900.956 314.263 901.273 312.353 901.599C310.148 901.976 307.858 902.362 304.736 902.065C304.72 902.065 304.678 902.023 304.623 901.953C304.594 901.915 304.562 901.87 304.528 901.818C304.43 901.68 304.308 901.482 304.173 901.263L304.162 901.246C303.648 900.425 302.92 899.262 302.471 899.193C301.148 899.008 299.661 899.11 297.822 899.235L297.659 899.246C294.937 899.434 291.45 899.675 286.515 899.193C284.715 899.015 282.376 898.44 279.915 897.826C277.551 897.242 275.078 896.638 272.849 896.321C267.045 895.509 260.788 894.855 254.31 894.182C246.987 893.419 239.395 892.626 231.84 891.537C220.696 889.943 225.251 893.578 234.117 895.36C236.039 895.753 238.056 895.893 239.907 896.021L239.946 896.024C241.146 896.103 242.272 896.182 243.24 896.321C262.22 899.094 232.66 897.836 225.007 897.282C214.562 896.538 194.247 894.092 193.108 892.498C191.418 890.121 199.451 890.418 205.414 890.646L205.667 890.655C208.516 890.76 210.853 890.846 211.341 890.586C215.009 888.714 196.302 887.203 185.718 886.349H185.713L185.564 886.337C184.067 886.218 182.74 886.113 181.669 886.021C180.691 885.937 179.927 885.864 179.442 885.803C178.793 885.724 177.776 885.208 176.833 884.723C176.038 884.307 175.291 883.931 174.887 883.881C174.03 883.771 173.099 883.763 172.142 883.794C171.552 883.813 170.953 883.847 170.356 883.881C169.484 883.934 168.616 883.985 167.787 883.991C167.077 883.995 166.396 883.968 165.764 883.881C165.127 883.792 164.123 883.287 163.192 882.811L163.124 882.777C162.342 882.384 161.613 882.018 161.208 881.97C158.857 881.673 155.563 881.336 151.854 880.959H151.829L151.286 880.904C141.941 879.953 130.231 878.76 124.754 877.186C122.477 876.522 121.081 875.473 119.807 874.502L119.762 874.468C118.519 873.53 117.386 872.676 115.644 872.402C115.313 872.343 113.966 872.501 112.24 872.709L112.166 872.718L112.157 872.72C109.632 873.015 106.327 873.402 104.244 873.353C96.627 873.195 86.5244 871.372 74.4751 869.193H74.4629L74.2363 869.153C68.0293 868.035 61.2974 866.823 54.1235 865.697C49.2622 864.925 43.0293 864.053 36.3555 863.122H36.3311L35.4429 862.997L35.437 862.996C26.4395 861.734 16.7368 860.373 8.5708 859.002C8.35059 858.962 7.97119 858.844 7.50586 858.695L7.44922 858.678C6.33936 858.332 4.81055 857.856 4.01562 858.041C3.07275 858.259 1.93408 859.814 1.02783 861.052C0.660645 861.567 0.317871 862.023 0.0605469 862.3C0.0209961 862.264 -0.015625 862.231 -0.0512695 862.201C-0.0927734 862.166 -0.132324 862.134 -0.172363 862.102L-0.306641 861.993C-0.318848 861.983 -0.331543 861.975 -0.34375 861.968C-0.355957 861.961 -0.368164 861.953 -0.380371 861.944C-0.46582 861.864 -0.527344 861.845 -0.527344 861.864C-0.576172 862.756 -0.34375 862.745 0.0727539 862.3C1.18701 863.261 3.30566 865.459 1.7627 865.697ZM898.699 966.303H1917V863.991C1912.7 864.713 1908.35 865.408 1903.91 866.116L1903.24 866.222H1903.19C1893.38 867.777 1883.17 869.401 1872.46 871.471C1870.37 871.877 1868.77 871.897 1866.81 871.917C1864.8 871.937 1862.42 871.967 1858.8 872.422C1858.42 872.472 1857.93 872.66 1857.39 872.908C1857.25 872.974 1857.1 873.043 1856.96 873.114C1856.71 873.233 1856.47 873.357 1856.23 873.482H1856.22L1856.15 873.517L1856.13 873.526C1855.35 873.915 1854.63 874.276 1854.23 874.324C1852.76 874.512 1851.08 874.432 1849.42 874.353C1847.94 874.284 1846.46 874.215 1845.12 874.324C1843.81 874.423 1842.18 874.997 1840.79 875.493C1839.76 875.859 1838.85 876.176 1838.29 876.235C1836.64 876.397 1834.83 876.311 1833.01 876.225L1832.8 876.215C1831.43 876.148 1830.05 876.081 1828.73 876.113C1828.1 876.128 1827.48 876.165 1826.89 876.235C1822.97 876.681 1816.26 877.731 1809.29 878.83H1809.28C1805.48 879.427 1801.59 880.036 1798.03 880.565C1796.98 880.721 1795.97 880.87 1794.99 881.009C1788.11 881.995 1781.11 883.03 1774.01 884.079L1769.85 884.693L1769.52 884.743H1769.47C1746.74 888.11 1723.08 891.606 1699.29 894.399C1690.61 895.427 1681.79 896.344 1672.88 897.269L1672.78 897.28L1672.76 897.282L1670.76 897.49H1670.75L1670.53 897.512L1670.52 897.513L1670.48 897.517C1659.63 898.638 1648.68 899.768 1637.77 901.104C1633.38 901.636 1627.95 902.452 1622.06 903.338L1622.05 903.34L1621.96 903.353H1621.94C1613.95 904.551 1605.11 905.878 1596.76 906.839C1591.57 907.431 1585.94 907.829 1580.29 908.23L1578.9 908.329C1573.32 908.726 1567.75 909.124 1562.59 909.711C1560 910.003 1557.42 910.301 1554.83 910.599L1550.16 911.138H1550.14L1549.99 911.155C1538.13 912.527 1525.6 913.976 1510.18 915.446C1505.88 915.852 1501.8 916.337 1497.64 916.842L1497.54 916.854C1489.77 917.782 1481.71 918.746 1471.44 919.268C1469.74 919.348 1467.97 919.298 1466.18 919.239L1465.91 919.231C1463.92 919.174 1461.93 919.117 1460.04 919.268C1456.48 919.556 1453.31 920.11 1450.1 920.675C1446.77 921.259 1443.41 921.844 1439.53 922.141C1437.76 922.289 1435.86 922.21 1433.97 922.131C1431.98 922.042 1429.99 921.963 1428.14 922.141C1419.89 922.907 1411.27 923.779 1402.34 924.679L1402.23 924.69L1401.78 924.736H1401.77C1383.79 926.548 1364.65 928.46 1345.15 929.935L1198.92 949.456C1196.51 949.655 1193.87 949.872 1191.06 950.11C1170.37 951.863 1141.32 954.319 1139.38 951.715C1137.01 948.546 1142.68 947.674 1149.5 946.625L1149.5 946.624C1150.36 946.493 1151.23 946.357 1152.11 946.214C1153.1 946.055 1154.09 945.886 1155.06 945.703C1166.79 943.474 1179.2 942.058 1191.76 940.632L1194.2 940.349L1196.1 940.13C1197.37 939.985 1198.63 939.839 1199.9 939.691C1203.66 939.235 1206.76 939.265 1209.28 939.295C1213.15 939.344 1215.69 939.364 1217.22 937.591C1214.78 937.591 1212.35 937.542 1209.9 937.482L1209.5 937.474C1205.75 937.387 1201.95 937.299 1197.99 937.443C1194.79 937.561 1191.85 937.968 1188.87 938.384C1188.46 938.44 1188.05 938.496 1187.64 938.551L1186.67 938.679C1186.04 938.761 1185.4 938.841 1184.76 938.918C1182.33 939.354 1180.51 939.651 1179.71 939.681C1178.1 939.73 1176.53 939.671 1175.01 939.542C1171.11 939.691 1167.23 939.786 1163.32 939.853C1158.64 939.932 1153.91 939.97 1149.01 940.008L1148.73 940.056C1143.05 941.005 1136.64 942.078 1130.39 942.682C1126.87 943.038 1122.39 943.038 1118.06 943.038C1111.64 943.038 1105.57 943.038 1103.48 944.187C1103.18 944.346 1103.02 945.743 1102.84 947.387L1102.83 947.417C1102.55 949.858 1102.21 952.845 1101.24 953.19C1096.77 954.884 1095.98 954.517 1094.74 953.943C1093.66 953.438 1092.24 952.784 1087.79 953.19C1084.35 953.507 1079.92 954.478 1074.99 955.577L1074.74 955.632C1068.4 957.035 1061.21 958.625 1054.16 959.202C1053.84 959.202 1015.48 960.331 1016.04 960.707C1011.82 957.878 1018.05 957.865 1022.95 957.855H1022.96C1024.78 957.855 1026.41 957.855 1027.26 957.706C1029.98 957.239 1033.37 956.781 1036.68 956.332L1036.85 956.31C1040.97 955.756 1044.96 955.211 1047.44 954.705C1048.88 954.411 1049.87 953.824 1050.88 953.224L1050.9 953.21L1050.94 953.191C1051.86 952.642 1052.81 952.077 1054.16 951.705C1055.16 951.438 1056.62 951.398 1058.06 951.358H1058.07C1060.39 951.299 1062.71 951.239 1063.12 950.209C1064.9 946.03 1047.27 950.833 1047.87 951.665C1047.03 951.489 1046.59 951.098 1046.21 950.763L1046.2 950.754C1045.88 950.467 1045.6 950.229 1045.18 950.209C1044.54 950.18 1041.36 950.603 1037.34 951.137L1037.34 951.137L1037.16 951.16C1030.66 952.032 1022.03 953.181 1018.28 953.21C1012.42 953.259 1005.75 953.117 998.902 952.971L998.493 952.963H998.489C972.481 952.408 944.174 951.804 948.79 960.718C949.782 962.639 943.365 967.432 930.851 965.224C924.875 964.184 930.128 962.639 934.744 961.292L934.767 961.286C937.513 960.486 940.021 959.755 939.814 959.222C937.879 954.171 914.797 957.647 906.715 958.866L906.693 958.869C904.931 959.134 903.887 959.291 903.947 959.222C902.576 960.549 904.939 961.817 906.948 962.887L906.955 962.891C908.776 963.859 910.3 964.67 908.429 965.224C905.832 965.989 902.239 966.301 898.699 966.303ZM667.646 929.272C670.127 929.473 672.336 929.832 674.238 930.153L674.26 930.157C675.715 930.402 676.986 930.617 678.071 930.701C678.732 930.752 679.324 930.756 679.846 930.688C680.36 930.619 680.862 930.074 681.267 929.381C676.811 929.322 672.258 929.292 667.646 929.272ZM706.563 930.708C703.489 930.307 700.292 929.974 696.794 929.817C694.039 929.688 691.21 929.599 688.345 929.529C689.937 930.718 691.577 931.847 693.304 932.203C696.058 932.775 697.879 932.209 699.779 931.618L699.806 931.609C701.202 931.173 702.635 930.728 704.508 930.708C704.987 930.701 705.472 930.703 705.958 930.706L706.266 930.707L706.563 930.708Z" fill="black"/>
</g>
<defs>
<clipPath id="clip0_4962_4076">
<rect width="1917" height="967" fill="white"/>
</clipPath>
</defs>
</svg>
