<svg width="1920" height="967" viewBox="0 0 1920 967" fill="none" xmlns="http://www.w3.org/2000/svg">
<path fill-rule="evenodd" clip-rule="evenodd" d="M0 866.634C1.53653 866.7 3.15239 866.638 4.76262 866.394C6.30553 866.156 4.18709 863.958 3.07277 862.997C2.65642 863.443 2.42377 863.452 2.47275 862.561C2.47275 862.541 2.53398 862.561 2.61969 862.64C2.63194 862.65 2.64418 862.658 2.65643 862.665C2.66867 862.673 2.68092 862.68 2.69316 862.69L2.82787 862.799C2.90134 862.858 2.97481 862.918 3.06053 862.997C3.31767 862.72 3.66054 862.264 4.02789 861.749C4.93405 860.511 6.07286 858.956 7.01575 858.738C7.81044 858.553 9.33917 859.029 10.4494 859.374L10.5057 859.392C10.971 859.54 11.3506 859.659 11.571 859.699C19.7368 861.07 29.4396 862.431 38.4369 863.693L38.4431 863.694L39.3311 863.819H39.3556C46.0293 864.75 52.2621 865.622 57.1235 866.394C64.2975 867.519 71.0293 868.732 77.2362 869.849L77.463 869.89H77.4752C89.5246 872.069 99.627 873.892 107.244 874.05C109.329 874.099 112.64 873.711 115.165 873.415L115.24 873.406C116.966 873.198 118.313 873.04 118.644 873.099C120.386 873.373 121.518 874.227 122.762 875.164L122.807 875.199C124.081 876.169 125.477 877.219 127.754 877.883C133.232 879.457 144.941 880.649 154.286 881.601L154.829 881.656H154.853C158.564 882.033 161.858 882.369 164.209 882.667C164.613 882.715 165.342 883.081 166.124 883.474L166.192 883.508C167.123 883.984 168.127 884.489 168.764 884.578C170.135 884.766 171.74 884.677 173.356 884.578C174.923 884.489 176.503 884.4 177.887 884.578C178.291 884.628 179.038 885.004 179.834 885.42C180.777 885.905 181.793 886.42 182.442 886.499C183.458 886.628 185.699 886.806 188.565 887.034L188.713 887.046C199.296 887.9 218.01 889.41 214.341 891.283C213.853 891.543 211.516 891.457 208.666 891.352L208.414 891.343C202.451 891.115 194.418 890.818 196.108 893.195C197.247 894.789 217.561 897.236 228.007 897.978C235.66 898.533 265.22 899.791 246.24 897.018C245.273 896.879 244.146 896.8 242.946 896.721L242.907 896.718C241.056 896.59 239.038 896.45 237.117 896.057C228.252 894.274 223.696 890.639 234.84 892.234C242.395 893.323 249.987 894.116 257.31 894.878C263.787 895.552 270.045 896.206 275.849 897.018C278.078 897.335 280.551 897.939 282.915 898.523C285.376 899.137 287.715 899.712 289.515 899.89C294.45 900.372 297.937 900.131 300.659 899.944L300.822 899.932H300.824C302.661 899.807 304.148 899.705 305.471 899.89C305.921 899.959 306.649 901.122 307.162 901.943L307.173 901.96L307.174 901.962C307.308 902.179 307.43 902.376 307.528 902.514C307.626 902.663 307.711 902.762 307.736 902.762C310.858 903.059 313.148 902.673 315.352 902.297C317.263 901.97 319.124 901.653 321.414 901.801C329.689 902.346 327.293 903.771 324.979 905.148L324.977 905.149C323.434 906.06 321.94 906.961 323.692 907.546C328.308 909.061 344.068 909.863 346.48 909.457C349.578 908.952 341.606 906.456 341.925 906.585C333.084 902.722 342.133 904.04 348.917 905.03H348.941L349.291 905.081C350.866 905.308 352.286 905.514 353.313 905.624C357.315 906.069 360.594 906.391 363.469 906.673L363.476 906.674L363.685 906.694H363.709C369.342 907.249 373.432 907.655 378.391 908.487C379.726 908.714 381.085 908.952 382.469 909.19C387.245 910.032 392.192 910.903 396.612 911.349C398.767 911.567 400.065 911.24 401.388 910.903C402.6 910.596 403.825 910.289 405.723 910.388C410.719 910.644 416.564 912.431 420.869 913.746L420.931 913.766C423.319 914.498 425.217 915.073 426.234 915.172C428.288 915.359 430.367 915.048 432.469 914.733L432.516 914.726C434.205 914.469 435.907 914.211 437.622 914.211C445.557 914.172 454.594 915.291 461.867 916.192L462.431 916.262L462.434 916.262C465.098 916.591 467.507 916.888 469.521 917.074C470.978 917.202 472.521 917.143 474.076 917.074C475.631 917.004 477.174 916.945 478.631 917.074C480.214 917.215 481.608 917.588 483.014 917.965L483.236 918.024C484.656 918.42 486.101 918.817 487.754 918.985C493.607 919.579 499.914 919.797 505.963 920.005L506.058 920.008C511.792 920.205 517.291 920.394 521.931 920.897C523.192 921.031 524.499 921.503 525.707 921.938L525.812 921.976L525.833 921.984L525.834 921.984C526.94 922.387 527.961 922.759 528.764 922.808C530.661 922.925 532.017 922.593 533.293 922.282L533.368 922.263C534.752 921.917 536.049 921.6 537.874 921.857C538.131 921.897 538.841 922.224 539.65 922.61C540.629 923.075 541.768 923.61 542.417 923.769C544.817 924.353 546.029 924.482 549.25 924.729C558.578 925.435 568.253 925.597 578.156 925.764L578.164 925.764L578.48 925.769C587.553 925.918 596.823 926.076 606.215 926.641C608.713 926.799 611.064 927.205 613.415 927.621C615.522 927.998 617.64 928.364 619.881 928.552C634.134 929.701 649.331 929.84 664.184 929.909C664.086 929.919 663.988 929.927 663.891 929.934C663.793 929.942 663.694 929.949 663.597 929.959C664.013 929.998 663.597 930.088 662.042 930.216C660.437 930.533 658.931 931.009 657.462 931.474C655.356 932.138 653.36 932.762 651.315 932.861C650.249 932.92 648.302 932.554 646.257 932.167C644.127 931.761 641.873 931.345 640.367 931.345C638.212 931.603 636.265 931.89 634.698 932.227C630.216 931.732 625.673 931.276 622.171 931.425C612.742 931.801 616.538 933.633 619.893 934.297C624.387 935.198 630.84 935.921 633.571 936.208C641.086 937.031 649.092 937.03 656.997 937.03H657.278C661.601 937.03 665.886 937.03 670.038 937.159C681.034 937.506 690.757 938.298 700.528 939.1H700.541L702.073 939.225C705.842 939.531 709.639 939.84 713.521 940.111C713.437 940.195 713.35 940.281 713.262 940.368L713.14 940.488C713.012 940.614 712.884 940.74 712.761 940.863C712.604 941.013 712.455 941.156 712.325 941.285C712.113 941.497 711.953 941.67 711.892 941.774C712.394 941.586 717.733 943.468 716.374 943.379C723.954 943.943 727.064 942.894 730.089 941.854C730.86 941.596 731.619 941.339 732.452 941.101C744.416 941.537 756.698 941.933 769.176 942.299C772.739 942.775 776.082 943.191 779.131 943.379C780.576 943.468 782.168 943.379 783.784 943.28L783.892 943.274H783.893C786.136 943.147 788.408 943.018 790.348 943.379C792.253 943.725 793.598 944.741 794.893 945.719L794.903 945.726L794.927 945.744C796.253 946.738 797.534 947.698 799.311 947.885C802.805 948.268 807.549 948.155 812.888 948.028H812.89L813.038 948.024L813.42 948.015H813.421C816.776 947.938 820.34 947.857 823.973 947.885C827.88 947.925 831.394 948.024 834.553 948.123L834.698 948.127C844.559 948.412 850.983 948.598 855.321 946.41C850.497 948.816 839.929 945.092 839.684 944.884C839.219 944.459 839.194 944.132 839.464 943.874C848.868 944.023 858.236 944.142 867.493 944.231C867.995 944.409 868.448 944.627 868.828 944.884C868.142 944.429 859.987 946.221 859.864 946.39C858.456 947.994 860.587 948.886 862.375 949.628C863.428 950.064 864.346 950.45 864.346 950.896C864.346 950.896 864.236 950.956 864.028 951.055L864.019 951.059C862.223 951.9 853.773 955.86 857.623 956.908C863.281 958.443 866.048 955.561 868.595 952.897C870.065 951.362 871.473 949.896 873.31 949.401C881.545 947.131 887.118 948.086 891.446 948.828L891.494 948.836C893.049 949.104 894.433 949.341 895.731 949.401C900.222 949.599 902.39 947.937 904.507 946.314L904.511 946.311C905.38 945.637 906.25 944.973 907.278 944.449H911.478C911.466 944.746 911.442 945.073 911.417 945.409L911.408 945.555L911.408 945.556C911.337 946.69 911.264 947.848 911.417 947.895C912.628 948.242 914.268 947.866 916.298 947.401L916.303 947.4C918.654 946.855 921.532 946.192 924.862 946.4C926.993 946.519 930.287 946.499 933.667 946.469C943.108 946.4 953.223 946.33 940.561 949.401C936.018 950.49 934.242 950.094 932.442 949.688C931.083 949.381 929.712 949.074 927.115 949.401C926.099 949.529 924.544 949.926 922.524 950.441L922.496 950.447C917.83 951.636 910.74 953.442 902.453 953.907C900.835 954.004 899.134 954.082 897.443 954.16L897.335 954.165L897.301 954.166C889.156 954.542 880.962 954.92 880.032 956.918C880.155 956.581 892.608 961.672 891.237 961.424C891.996 961.573 893.955 961.513 896.159 961.444L896.278 961.441H896.279C901.083 961.303 907.014 961.132 904.694 962.92C904.164 963.348 901.562 963.183 899.251 963.036L899.135 963.029C897.653 962.93 896.306 962.841 895.731 962.92C877.73 965.257 901.645 968.803 911.429 965.921C913.3 965.367 911.776 964.556 909.955 963.587L909.948 963.583C907.939 962.514 905.576 961.246 906.948 959.919C906.886 959.988 907.939 959.83 909.715 959.562C917.797 958.344 940.879 954.868 942.814 959.919C943.021 960.452 940.513 961.183 937.767 961.982L937.744 961.989C933.128 963.336 927.875 964.881 933.85 965.921C946.365 968.129 952.782 963.336 951.79 961.414C947.174 952.501 975.482 953.105 1001.49 953.659H1001.49L1001.9 953.668C1008.75 953.814 1015.42 953.956 1021.28 953.907C1025.03 953.877 1033.66 952.728 1040.16 951.857L1040.34 951.834L1040.34 951.833C1044.36 951.3 1047.55 950.877 1048.18 950.906C1048.6 950.926 1048.88 951.164 1049.2 951.451L1049.21 951.46C1049.59 951.794 1050.03 952.185 1050.87 952.362C1050.27 951.53 1067.9 946.727 1066.12 950.906C1065.71 951.936 1063.39 951.996 1061.07 952.055L1061.06 952.055C1059.62 952.095 1058.16 952.135 1057.16 952.402C1055.81 952.773 1054.86 953.339 1053.94 953.887L1053.94 953.888L1053.9 953.907L1053.88 953.921C1052.87 954.521 1051.88 955.108 1050.44 955.403C1047.96 955.908 1043.97 956.452 1039.85 957.007L1039.68 957.029C1036.37 957.478 1032.98 957.936 1030.26 958.403C1029.41 958.552 1027.78 958.552 1025.96 958.552H1025.95C1021.05 958.562 1014.82 958.575 1019.04 961.404C1018.48 961.028 1056.84 959.899 1057.16 959.899C1064.21 959.322 1071.4 957.732 1077.74 956.329L1077.99 956.274C1082.92 955.175 1087.35 954.204 1090.79 953.887C1095.24 953.481 1096.66 954.135 1097.74 954.64C1098.98 955.214 1099.77 955.581 1104.24 953.887C1105.21 953.542 1105.55 950.555 1105.83 948.114L1105.84 948.083C1106.02 946.439 1106.18 945.043 1106.48 944.884C1108.57 943.736 1114.64 943.735 1121.06 943.735H1121.06C1125.39 943.735 1129.87 943.735 1133.39 943.379C1139.64 942.775 1146.05 941.702 1151.73 940.752L1152.01 940.705C1160.99 940.635 1169.43 940.566 1178.01 940.239C1179.53 940.368 1181.1 940.427 1182.71 940.378C1183.51 940.348 1185.33 940.051 1187.76 939.615C1188.4 939.537 1189.04 939.458 1189.67 939.375C1190.41 939.28 1191.14 939.182 1191.87 939.081C1194.85 938.665 1197.79 938.258 1200.99 938.14C1204.95 937.996 1208.75 938.084 1212.5 938.17L1212.9 938.179C1215.35 938.239 1217.78 938.288 1220.22 938.288C1218.69 940.061 1216.15 940.041 1212.28 939.992C1209.76 939.962 1206.66 939.932 1202.9 940.388C1201.63 940.536 1200.37 940.682 1199.1 940.827C1198.46 940.9 1197.83 940.973 1197.2 941.046C1196.39 941.139 1195.57 941.234 1194.76 941.329C1182.2 942.755 1169.79 944.171 1158.06 946.4C1156.21 946.746 1154.31 947.043 1152.5 947.321L1152.5 947.322C1145.68 948.371 1140.01 949.243 1142.38 952.411C1144.32 955.016 1173.37 952.56 1194.06 950.807C1196.87 950.569 1199.51 950.351 1201.92 950.153L1348.15 930.632C1367.65 929.157 1386.79 927.245 1404.77 925.433H1404.78L1405.23 925.387C1414.19 924.482 1422.86 923.607 1431.14 922.838C1432.99 922.66 1434.98 922.739 1436.97 922.828C1438.86 922.907 1440.76 922.986 1442.53 922.838C1446.41 922.541 1449.77 921.956 1453.1 921.372C1456.31 920.807 1459.48 920.253 1463.04 919.966C1464.93 919.814 1466.92 919.871 1468.91 919.928L1469.18 919.936C1470.97 919.995 1472.74 920.045 1474.44 919.966C1484.71 919.443 1492.77 918.479 1500.53 917.552L1500.54 917.551L1500.64 917.539C1504.8 917.034 1508.88 916.549 1513.18 916.143C1528.6 914.673 1541.13 913.224 1552.99 911.852L1553.14 911.834H1553.16L1557.83 911.296C1560.42 910.997 1563 910.7 1565.59 910.408C1570.75 909.821 1576.32 909.424 1581.9 909.026L1583.29 908.927C1588.94 908.526 1594.57 908.128 1599.76 907.536C1608.11 906.575 1616.95 905.248 1624.94 904.05L1624.94 904.05L1624.94 904.05H1624.96L1625.05 904.037L1625.06 904.035C1630.95 903.149 1636.38 902.333 1640.77 901.801C1651.69 900.464 1662.66 899.331 1673.52 898.21L1673.53 898.209L1673.75 898.186H1673.76L1675.76 897.978L1675.78 897.976C1684.72 897.048 1693.58 896.128 1702.29 895.096C1726.08 892.303 1749.74 888.807 1772.47 885.44H1772.52L1772.85 885.39L1777.01 884.776C1784.11 883.727 1791.11 882.692 1797.99 881.706C1802.29 881.092 1807.36 880.299 1812.28 879.527H1812.29C1819.26 878.428 1825.97 877.378 1829.89 876.932C1831.72 876.714 1833.77 876.813 1835.8 876.912L1836.01 876.922C1837.83 877.008 1839.64 877.094 1841.29 876.932C1841.85 876.873 1842.76 876.556 1843.79 876.189C1845.18 875.694 1846.81 875.12 1848.12 875.021C1849.46 874.912 1850.94 874.981 1852.42 875.05C1854.08 875.13 1855.76 875.209 1857.23 875.021C1857.64 874.972 1858.36 874.607 1859.15 874.214L1859.22 874.179H1859.23C1859.61 873.981 1860.01 873.783 1860.39 873.604C1860.93 873.357 1861.42 873.169 1861.8 873.119C1865.42 872.663 1867.8 872.634 1869.81 872.614C1871.77 872.594 1873.37 872.574 1875.47 872.168C1886.17 870.098 1896.38 868.474 1906.19 866.919H1906.24L1906.91 866.812C1911.35 866.105 1915.7 865.41 1920 864.688V0H0V866.634ZM677.238 930.85C675.336 930.529 673.127 930.17 670.646 929.969C675.258 929.989 679.811 930.019 684.267 930.078C683.863 930.771 683.361 931.316 682.846 931.385C681.467 931.563 679.601 931.248 677.26 930.854L677.238 930.85ZM699.794 930.513C703.292 930.671 706.489 931.003 709.563 931.405C709.464 931.405 709.365 931.405 709.266 931.404L708.959 931.403C708.472 931.401 707.987 931.398 707.508 931.405C705.635 931.425 704.202 931.87 702.806 932.306L702.779 932.314C700.879 932.906 699.058 933.472 696.304 932.9C694.577 932.544 692.936 931.415 691.344 930.226C694.21 930.296 697.039 930.385 699.794 930.513Z" fill="black"/>
</svg>
