<svg width="1920" height="109" viewBox="0 0 1920 109" fill="none" xmlns="http://www.w3.org/2000/svg">
<path fill-rule="evenodd" clip-rule="evenodd" d="M4.7627 7.69714C3.15234 7.94128 1.53662 8.00281 0 7.93738V108.303H901.629C891.858 108.298 882.54 105.936 895.731 104.223C896.306 104.143 897.653 104.233 899.135 104.332L899.251 104.339C901.562 104.486 904.165 104.651 904.694 104.223C907.013 102.436 901.09 102.606 896.285 102.744H896.277L896.159 102.747C893.955 102.816 891.996 102.876 891.237 102.727C892.608 102.975 880.155 97.8842 880.032 98.2211C880.962 96.223 889.156 95.8451 897.301 95.4691L897.335 95.4677L897.443 95.4628C899.134 95.3851 900.835 95.307 902.454 95.2103C910.74 94.7455 917.831 92.9393 922.496 91.7504L922.523 91.7435L922.54 91.7391C924.553 91.2269 926.102 90.8319 927.115 90.704C928.278 90.5575 929.195 90.5385 929.975 90.5892C930.938 90.6522 931.692 90.8217 932.442 90.9911C934.242 91.3969 936.018 91.7933 940.561 90.704C953.223 87.6337 943.108 87.703 933.667 87.7723C930.287 87.8016 926.993 87.8217 924.862 87.703C921.532 87.495 918.654 88.1586 916.303 88.703L916.298 88.704C914.268 89.1693 912.628 89.5448 911.417 89.1981C911.265 89.1508 911.337 87.9935 911.408 86.8578L911.417 86.7123L911.421 86.6459C911.444 86.3329 911.467 86.0292 911.479 85.7518H907.278C906.25 86.2767 905.38 86.9403 904.511 87.6136L904.507 87.6166C902.39 89.2401 900.222 90.9017 895.731 90.704C894.433 90.6444 893.049 90.4066 891.494 90.139L891.446 90.1307C887.118 89.3895 881.545 88.4344 873.31 90.704C871.473 91.1991 870.064 92.6649 868.595 94.2001C866.048 96.8641 863.281 99.746 857.624 98.2108C853.773 97.163 862.223 93.203 864.019 92.3617L864.028 92.3578C864.236 92.2587 864.346 92.1991 864.346 92.1991C864.346 91.9789 864.122 91.7733 863.768 91.5692C863.406 91.3602 862.907 91.1522 862.375 90.9315C860.587 90.1888 858.456 89.2972 859.864 87.6927C859.987 87.5243 868.142 85.7318 868.828 86.1874C868.448 85.9301 867.995 85.7118 867.493 85.5336C858.236 85.4447 848.868 85.3256 839.464 85.1771C839.194 85.4349 839.219 85.7616 839.684 86.1874C839.929 86.3954 850.497 90.1195 855.321 87.7128C850.983 89.9008 844.559 89.7152 834.698 89.4301L834.553 89.4261C831.394 89.327 827.88 89.2279 823.974 89.1884C820.34 89.16 816.775 89.2416 813.42 89.3182L812.89 89.3304C807.549 89.4579 802.805 89.5712 799.312 89.1884C797.534 89.0013 796.253 88.0414 794.927 87.0472L794.903 87.0292L794.893 87.0219C793.598 86.0438 792.253 85.0277 790.348 84.682C788.409 84.3221 786.14 84.4501 783.896 84.5765H783.892L783.784 84.5829C782.645 84.6527 781.518 84.7177 780.446 84.7186C779.997 84.7191 779.558 84.7084 779.131 84.682C776.082 84.494 772.739 84.078 769.176 83.6024C756.698 83.2362 744.416 82.8397 732.452 82.4042C731.619 82.642 730.86 82.8993 730.089 83.1566C727.064 84.1967 723.954 85.2465 716.374 84.682C717.733 84.7714 712.394 82.8895 711.892 83.0775C711.953 82.973 712.113 82.7997 712.325 82.5887C712.455 82.4594 712.604 82.3163 712.762 82.1664C712.884 82.0428 713.012 81.9169 713.14 81.7909L713.262 81.6708L713.438 81.4969L713.521 81.4135C709.66 81.1449 705.884 80.8383 702.136 80.5321L702.073 80.5277L700.541 80.4037H700.528C690.757 79.601 681.034 78.809 670.038 78.4623C665.887 78.3334 661.601 78.3334 657.278 78.3334H656.997C649.092 78.3334 641.086 78.3339 633.571 77.5116C630.84 77.2245 624.387 76.5013 619.893 75.6C616.538 74.9364 612.742 73.1039 622.171 72.7279C625.673 72.579 630.216 73.0345 634.698 73.5302C636.265 73.1932 638.212 72.9061 640.367 72.6483C641.874 72.6483 644.126 73.0643 646.257 73.4706C648.302 73.8568 650.249 74.223 651.314 74.1639C653.359 74.0648 655.355 73.4408 657.462 72.7772C658.931 72.3119 660.438 71.8363 662.042 71.5194C663.597 71.3905 664.013 71.3016 663.597 71.2621C663.692 71.2518 663.788 71.2445 663.883 71.2372H663.891C663.988 71.2299 664.086 71.2225 664.185 71.2123C649.331 71.1429 634.134 71.0043 619.881 69.8553C617.64 69.6674 615.521 69.3007 613.416 68.9247C611.064 68.5087 608.713 68.1024 606.215 67.9442C596.823 67.3793 587.553 67.2211 578.479 67.0726L578.164 67.0673L578.156 67.0668C568.252 66.9008 558.578 66.7382 549.25 66.0326C546.029 65.785 544.817 65.6561 542.417 65.0717C541.979 64.9647 541.317 64.6859 540.632 64.3729C540.303 64.2225 539.968 64.0638 539.649 63.913C538.841 63.5267 538.131 63.2001 537.874 63.1605C536.796 63.0082 535.902 63.0565 535.065 63.1927C534.486 63.2875 533.934 63.4242 533.368 63.5663L533.293 63.5848L533.289 63.5863C532.014 63.8973 530.659 64.2279 528.764 64.1112C528.134 64.0726 527.372 63.8363 526.538 63.5414C526.308 63.4598 526.072 63.3739 525.833 63.2865L525.812 63.2792L525.707 63.2411C524.5 62.8055 523.192 62.3344 521.931 62.1996C517.291 61.6971 511.792 61.5082 506.059 61.3114L505.963 61.3085C499.914 61.1005 493.607 60.8822 487.754 60.288C486.101 60.12 484.656 59.7235 483.235 59.3275L483.014 59.2679C481.608 58.8915 480.214 58.5179 478.631 58.3768C477.174 58.2479 475.631 58.3075 474.076 58.3768C472.521 58.4462 470.978 58.5052 469.521 58.3768C468.118 58.2479 466.523 58.0643 464.782 57.8534C464.025 57.7616 463.24 57.6644 462.431 57.5648L461.868 57.495C454.594 56.5936 445.557 55.4745 437.622 55.5145C435.907 55.5145 434.206 55.7719 432.516 56.0292L432.469 56.0365C430.367 56.351 428.288 56.662 426.234 56.475C425.217 56.3759 423.319 55.8016 420.932 55.0687L420.869 55.0497C416.564 53.7343 410.719 51.9476 405.723 51.6913C404.523 51.6288 403.593 51.7279 402.764 51.8871C402.282 51.9799 401.834 52.0931 401.388 52.2064C400.065 52.5428 398.768 52.87 396.612 52.6522C392.192 52.2064 387.245 51.3348 382.469 50.493L379.461 49.973L378.391 49.7899C373.432 48.9579 369.342 48.5516 363.709 47.9969H363.685L363.476 47.9764L363.469 47.976C360.594 47.6937 357.315 47.3719 353.313 46.9276C352.286 46.8168 350.866 46.6117 349.291 46.3837L348.941 46.3334H348.917C342.133 45.3427 333.083 44.0258 341.925 47.8881C341.606 47.7596 349.578 50.2552 346.48 50.7601C344.068 51.1664 328.308 50.3641 323.691 48.849C321.94 48.2645 323.435 47.3632 324.978 46.452C327.293 45.0746 329.689 43.6488 321.414 43.1044C319.124 42.9559 317.263 43.2728 315.353 43.5995C313.148 43.976 310.858 44.3622 307.736 44.0653C307.72 44.0653 307.678 44.0233 307.623 43.9525C307.594 43.9149 307.562 43.8695 307.528 43.8177C307.43 43.6796 307.308 43.4823 307.173 43.2631L307.162 43.2465C306.648 42.4252 305.92 41.2616 305.471 41.1927C304.148 41.0082 302.661 41.1097 300.822 41.2352L300.659 41.2465C297.937 41.4344 294.45 41.6747 289.515 41.1927C287.715 41.0145 285.376 40.4403 282.915 39.826C280.551 39.2416 278.078 38.6376 275.849 38.3207C270.045 37.5087 263.788 36.8549 257.31 36.1815C249.987 35.4188 242.395 34.6263 234.84 33.537C223.696 31.9427 228.251 35.5775 237.117 37.3602C239.039 37.7533 241.056 37.8929 242.907 38.0209L242.946 38.0238C244.146 38.1029 245.272 38.182 246.24 38.3207C265.22 41.0941 235.66 39.8363 228.007 39.2816C217.562 38.5385 197.247 36.0922 196.108 34.4979C194.418 32.121 202.451 32.4178 208.414 32.6459L208.667 32.6552C211.516 32.7601 213.853 32.8461 214.341 32.5863C218.009 30.7137 199.302 29.2035 188.718 28.3495H188.713L188.564 28.3373C187.067 28.2181 185.74 28.1127 184.669 28.0209C183.691 27.9369 182.927 27.8641 182.442 27.8026C181.793 27.7235 180.776 27.2084 179.833 26.723C179.038 26.307 178.291 25.9305 177.887 25.8812C177.03 25.7709 176.099 25.7631 175.142 25.7943C174.552 25.8134 173.953 25.847 173.356 25.8812C172.484 25.9344 171.616 25.9852 170.787 25.9906C170.077 25.9955 169.396 25.9677 168.764 25.8812C168.127 25.7919 167.123 25.287 166.192 24.8114L166.124 24.7772C165.342 24.3837 164.613 24.0179 164.208 23.9696C161.857 23.6727 158.563 23.3358 154.854 22.9594H154.829L154.286 22.9042C144.941 21.9525 133.231 20.7596 127.754 19.1859C125.477 18.5223 124.081 17.4725 122.807 16.5018L122.762 16.4677C121.519 15.5302 120.386 14.6761 118.644 14.4022C118.313 14.3427 116.966 14.5013 115.24 14.7093L115.166 14.7181L115.157 14.7196C112.632 15.015 109.327 15.4022 107.244 15.3529C99.627 15.1947 89.5244 13.3724 77.4751 11.1932H77.4629L77.2363 11.1527C71.0293 10.0345 64.2974 8.82263 57.1235 7.69714C52.2622 6.92468 46.0293 6.0531 39.3555 5.12195H39.3311L38.4429 4.99744L38.437 4.99646C29.4395 3.73425 19.7368 2.37292 11.5708 1.00183C11.3506 0.962279 10.9712 0.843627 10.5059 0.694701L10.4492 0.677611C9.33936 0.331908 7.81055 -0.143678 7.01562 0.0413809C6.07275 0.259154 4.93408 1.81433 4.02783 3.05212C3.66064 3.56726 3.31787 4.02283 3.06055 4.30017C3.021 4.26355 2.98438 4.23132 2.94873 4.20105C2.90723 4.16589 2.86768 4.13415 2.82764 4.10193L2.69336 3.99304C2.68115 3.98328 2.66846 3.97546 2.65625 3.96814C2.64404 3.96081 2.63184 3.95349 2.61963 3.94372C2.53418 3.86413 2.47266 3.8446 2.47266 3.86413C2.42383 4.75574 2.65625 4.74548 3.07275 4.30017C4.18701 5.26062 6.30566 7.45935 4.7627 7.69714ZM901.699 108.303H1920V5.99109C1915.7 6.71326 1911.35 7.40759 1906.91 8.1156L1906.24 8.22204H1906.19C1896.38 9.77722 1886.17 11.4012 1875.46 13.4711C1873.37 13.8773 1871.77 13.8973 1869.81 13.9169C1867.8 13.9369 1865.42 13.9667 1861.8 14.4222C1861.42 14.4716 1860.93 14.6595 1860.39 14.9076C1860.25 14.974 1860.1 15.0433 1859.96 15.1141C1859.71 15.2333 1859.47 15.3573 1859.23 15.4818H1859.22L1859.15 15.5175L1859.13 15.5262C1858.35 15.9149 1857.63 16.2762 1857.23 16.3236C1855.76 16.5121 1854.08 16.4325 1852.42 16.3534C1850.94 16.2841 1849.46 16.2147 1848.12 16.3236C1846.81 16.4227 1845.18 16.9969 1843.79 17.4926C1842.76 17.8588 1841.85 18.1757 1841.29 18.2352C1839.64 18.3973 1837.83 18.3114 1836.01 18.225L1835.8 18.2152C1834.43 18.1483 1833.05 18.0814 1831.73 18.1127C1831.1 18.1278 1830.48 18.1649 1829.89 18.2352C1825.97 18.681 1819.26 19.7308 1812.29 20.83H1812.28C1808.48 21.4266 1804.59 22.0355 1801.03 22.5648C1799.98 22.7206 1798.97 22.8695 1797.99 23.0092C1791.11 23.9955 1784.11 25.0302 1777.01 26.079L1772.85 26.6932L1772.52 26.743H1772.47C1749.74 30.1102 1726.08 33.6063 1702.29 36.3993C1693.61 37.4271 1684.79 38.3441 1675.88 39.2694L1675.78 39.2797L1675.76 39.2816L1673.76 39.4896H1673.75L1673.53 39.5121L1673.52 39.5131L1673.48 39.5175C1662.63 40.6376 1651.68 41.7684 1640.77 43.1044C1636.38 43.6361 1630.95 44.452 1625.06 45.3378L1625.05 45.3402L1624.96 45.3529H1624.94C1616.95 46.5511 1608.11 47.8783 1599.76 48.8387C1594.57 49.4305 1588.94 49.8295 1583.29 50.2299L1581.9 50.329C1576.32 50.7264 1570.75 51.1239 1565.59 51.7113C1563 52.0028 1560.42 52.3007 1557.83 52.5995L1553.16 53.1376H1553.14L1552.99 53.1552C1541.13 54.5267 1528.6 55.9764 1513.18 57.4457C1508.88 57.8519 1504.8 58.3368 1500.64 58.8422L1500.54 58.8544C1492.77 59.7821 1484.71 60.746 1474.44 61.2684C1472.74 61.348 1470.97 61.2982 1469.18 61.2391L1468.91 61.2313C1466.92 61.1742 1464.93 61.1171 1463.04 61.2684C1459.48 61.556 1456.31 62.1102 1453.1 62.6752C1449.77 63.2592 1446.41 63.8436 1442.53 64.141C1440.76 64.2894 1438.86 64.2103 1436.97 64.1307C1434.98 64.0419 1432.99 63.9628 1431.14 64.141C1422.89 64.9071 1414.27 65.7787 1405.34 66.6786L1405.23 66.6903L1404.78 66.7357H1404.77C1386.79 68.5482 1367.65 70.4598 1348.15 71.9354L1201.92 91.4564C1199.51 91.6547 1196.87 91.8724 1194.06 92.1102C1173.37 93.8632 1144.32 96.3192 1142.38 93.7147C1140.01 90.5463 1145.68 89.6742 1152.5 88.6249L1152.5 88.6239C1153.36 88.493 1154.23 88.3573 1155.11 88.2142C1156.1 88.0546 1157.09 87.8856 1158.06 87.703C1169.79 85.4745 1182.2 84.058 1194.76 82.6317L1197.2 82.3485L1199.1 82.1302C1200.37 81.9847 1201.63 81.8387 1202.9 81.6908C1206.66 81.2352 1209.76 81.265 1212.28 81.2948C1216.15 81.3441 1218.69 81.3641 1220.22 79.5912C1217.78 79.5912 1215.35 79.5419 1212.9 79.4823L1212.5 79.4735C1208.75 79.3866 1204.95 79.2992 1200.99 79.4427C1197.79 79.5614 1194.85 79.9677 1191.87 80.3837C1191.46 80.4403 1191.05 80.4965 1190.64 80.5511L1189.67 80.6786C1189.04 80.7606 1188.4 80.8407 1187.76 80.9183C1185.33 81.3544 1183.51 81.6512 1182.71 81.681C1181.1 81.7303 1179.53 81.6713 1178.01 81.5424C1174.11 81.6908 1170.23 81.7865 1166.32 81.8529C1161.64 81.9325 1156.91 81.9701 1152.01 82.0077L1151.73 82.0555C1146.05 83.0048 1139.64 84.078 1133.39 84.682C1129.87 85.0385 1125.39 85.0385 1121.06 85.0385C1114.64 85.0385 1108.57 85.0385 1106.48 86.1874C1106.18 86.3461 1106.02 87.7426 1105.84 89.3866L1105.83 89.4169C1105.55 91.8578 1105.21 94.8451 1104.24 95.1903C1099.77 96.8842 1098.98 96.5175 1097.74 95.9432C1096.66 95.4379 1095.24 94.7841 1090.79 95.1903C1087.35 95.5072 1082.92 96.4779 1077.99 97.577L1077.74 97.6317C1071.4 99.035 1064.21 100.625 1057.16 101.202C1056.84 101.202 1018.48 102.331 1019.04 102.707C1014.82 99.8778 1021.05 99.8651 1025.95 99.8553H1025.96C1027.78 99.8553 1029.41 99.8553 1030.26 99.7064C1032.98 99.2391 1036.37 98.7806 1039.68 98.3324L1039.85 98.3099C1043.97 97.7557 1047.96 97.2108 1050.44 96.7054C1051.88 96.411 1052.87 95.8236 1053.88 95.2245L1053.9 95.2103L1053.94 95.1908C1054.86 94.642 1055.81 94.0765 1057.16 93.705C1058.16 93.4379 1059.62 93.3978 1061.06 93.3583H1061.07C1063.39 93.2987 1065.71 93.2391 1066.12 92.2094C1067.9 88.0297 1050.27 92.8329 1050.87 93.6649C1050.03 93.4886 1049.59 93.0975 1049.21 92.7626L1049.2 92.7538C1048.88 92.4667 1048.6 92.2289 1048.18 92.2094C1047.54 92.1801 1044.36 92.6029 1040.34 93.1366L1040.34 93.1371L1040.16 93.16C1033.66 94.0316 1025.03 95.1805 1021.28 95.2103C1015.42 95.2587 1008.75 95.1171 1001.9 94.9711L1001.49 94.9628H1001.49C975.481 94.4081 947.174 93.8041 951.79 102.718C952.782 104.639 946.365 109.432 933.851 107.224C927.875 106.184 933.128 104.639 937.744 103.292L937.767 103.286C940.513 102.486 943.021 101.755 942.814 101.222C940.879 96.1708 917.797 99.6473 909.715 100.866L909.693 100.869C907.931 101.134 906.887 101.291 906.947 101.222C905.576 102.549 907.939 103.817 909.948 104.887L909.955 104.891C911.776 105.859 913.3 106.67 911.429 107.224C908.832 107.989 905.239 108.301 901.699 108.303ZM670.646 71.2723C673.127 71.4725 675.336 71.8319 677.238 72.1532L677.26 72.1571C678.715 72.4022 679.986 72.6166 681.071 72.701C681.732 72.7523 682.324 72.7557 682.846 72.6884C683.36 72.619 683.862 72.0741 684.267 71.3807C679.811 71.3217 675.258 71.2919 670.646 71.2723ZM709.563 72.7079C706.489 72.3065 703.292 71.9735 699.794 71.8168C697.039 71.6879 694.21 71.5985 691.345 71.5292C692.937 72.7177 694.577 73.847 696.304 74.2035C699.058 74.7753 700.879 74.2089 702.779 73.6176L702.806 73.6093C704.202 73.1732 705.635 72.7279 707.508 72.7079C707.987 72.701 708.472 72.7035 708.958 72.7059L709.266 72.7074L709.563 72.7079Z" fill="black"/>
</svg>
